<svg xmlns="http://www.w3.org/2000/svg" width="1200" height="630" viewBox="0 0 1200 630" role="img" aria-labelledby="title desc">
  <title id="title">Death Clock life expectancy calculator</title>
  <desc id="desc">A branded preview with a six-part life countdown.</desc>
  <defs>
    <radialGradient id="glow" cx="50%" cy="0%" r="85%">
      <stop offset="0" stop-color="#38251f"/>
      <stop offset="0.52" stop-color="#151210"/>
      <stop offset="1" stop-color="#090807"/>
    </radialGradient>
    <linearGradient id="tile" x1="0" y1="0" x2="0" y2="1">
      <stop offset="0" stop-color="#28221f"/>
      <stop offset="0.49" stop-color="#211c19"/>
      <stop offset="0.5" stop-color="#151210"/>
      <stop offset="1" stop-color="#100e0d"/>
    </linearGradient>
  </defs>
  <rect width="1200" height="630" fill="url(#glow)"/>
  <rect x="40" y="40" width="1120" height="550" rx="8" fill="none" stroke="#302923" stroke-width="2"/>
  <path d="M88 76h28v5h-3c0 9-4 15-9 19 5 4 9 10 9 19h3v5H88v-5h3c0-9 4-15 9-19-5-4-9-10-9-19h-3v-5Zm9 5c0 7 3 11 5 13 2-2 5-6 5-13H97Zm5 25c-2 2-5 6-5 13h10c0-7-3-11-5-13Z" fill="#b9a083"/>
  <text x="136" y="105" fill="#81776c" font-family="Georgia, serif" font-size="22">PRIVATE LIFE EXPECTANCY CALCULATOR</text>
  <text x="82" y="210" fill="#ddd3c5" font-family="Georgia, serif" font-size="84" font-weight="700">Death Clock</text>
  <text x="86" y="260" fill="#b9a083" font-family="Georgia, serif" font-size="28">Estimate your time. Watch it count down. Use it well.</text>
  <g font-family="Georgia, serif" text-anchor="middle">
    <g transform="translate(82 316)">
      <rect width="155" height="126" rx="5" fill="url(#tile)" stroke="#4b4038"/>
      <path d="M0 63h155" stroke="#090807" stroke-width="3"/>
      <text x="77.5" y="82" fill="#ddd3c5" font-size="58" font-weight="700">73</text>
      <text x="77.5" y="157" fill="#81776c" font-size="17">YEARS</text>
    </g>
    <g transform="translate(258 316)">
      <rect width="155" height="126" rx="5" fill="url(#tile)" stroke="#4b4038"/>
      <path d="M0 63h155" stroke="#090807" stroke-width="3"/>
      <text x="77.5" y="82" fill="#ddd3c5" font-size="58" font-weight="700">04</text>
      <text x="77.5" y="157" fill="#81776c" font-size="17">MONTHS</text>
    </g>
    <g transform="translate(434 316)">
      <rect width="155" height="126" rx="5" fill="url(#tile)" stroke="#4b4038"/>
      <path d="M0 63h155" stroke="#090807" stroke-width="3"/>
      <text x="77.5" y="82" fill="#ddd3c5" font-size="58" font-weight="700">12</text>
      <text x="77.5" y="157" fill="#81776c" font-size="17">DAYS</text>
    </g>
    <g transform="translate(610 316)">
      <rect width="155" height="126" rx="5" fill="url(#tile)" stroke="#4b4038"/>
      <path d="M0 63h155" stroke="#090807" stroke-width="3"/>
      <text x="77.5" y="82" fill="#ddd3c5" font-size="58" font-weight="700">08</text>
      <text x="77.5" y="157" fill="#81776c" font-size="17">HOURS</text>
    </g>
    <g transform="translate(786 316)">
      <rect width="155" height="126" rx="5" fill="url(#tile)" stroke="#4b4038"/>
      <path d="M0 63h155" stroke="#090807" stroke-width="3"/>
      <text x="77.5" y="82" fill="#ddd3c5" font-size="58" font-weight="700">31</text>
      <text x="77.5" y="157" fill="#81776c" font-size="17">MINUTES</text>
    </g>
    <g transform="translate(962 316)">
      <rect width="155" height="126" rx="5" fill="url(#tile)" stroke="#4b4038"/>
      <path d="M0 63h155" stroke="#090807" stroke-width="3"/>
      <text x="77.5" y="82" fill="#ddd3c5" font-size="58" font-weight="700">44</text>
      <text x="77.5" y="157" fill="#81776c" font-size="17">SECONDS</text>
    </g>
  </g>
  <text x="82" y="548" fill="#81776c" font-family="Georgia, serif" font-size="20">WHO + OWID + CDC DATA  &#8226;  ANSWERS STAY IN YOUR BROWSER</text>
  <rect x="1081" y="519" width="5" height="29" rx="2.5" fill="#711118"/>
  <rect x="1097" y="507" width="5" height="41" rx="2.5" fill="#711118"/>
  <rect x="1113" y="530" width="5" height="18" rx="2.5" fill="#711118"/>
</svg>